<?xml version="1.0" standalone="no"?>
<!DOCTYPE svg PUBLIC "-//W3C//DTD SVG 20010904//EN"
 "http://www.w3.org/TR/2001/REC-SVG-20010904/DTD/svg10.dtd">
<svg version="1.0" xmlns="http://www.w3.org/2000/svg"
 width="376.000000pt" height="376.000000pt" viewBox="0 0 376.000000 376.000000"
 preserveAspectRatio="xMidYMid meet">
<metadata>
Created by potrace 1.11, written by Peter Selinger 2001-2013
</metadata>
<g transform="translate(0.000000,376.000000) scale(0.100000,-0.100000)"
fill="#000000" stroke="none">
<path d="M2648 3186 c-1 -2 -50 -6 -108 -9 -259 -15 -440 -79 -591 -208 l-57
-48 -43 33 c-85 66 -215 118 -354 142 -22 3 -336 8 -698 10 l-657 3 -1 -27
c-4 -139 -1 -2414 4 -2418 3 -3 277 -6 609 -6 534 -1 694 3 748 17 8 2 35 7
60 10 81 11 194 56 268 105 l74 49 51 -38 c96 -72 251 -144 357 -165 14 -2 50
-10 80 -16 184 -37 469 -32 654 11 245 58 448 199 552 386 68 121 88 201 89
358 0 168 -26 265 -104 381 -104 156 -259 236 -616 319 -88 21 -214 51 -280
67 -66 16 -127 31 -135 33 -66 13 -210 59 -250 80 -103 53 -147 163 -113 278
32 109 158 194 313 213 213 26 396 -14 507 -110 49 -43 99 -139 109 -208 l6
-48 245 0 244 0 -5 65 c-10 130 -59 273 -124 367 -142 203 -421 344 -721 364
-47 3 -91 7 -98 9 -6 2 -13 2 -15 1z m-1259 -530 c126 -31 182 -100 184 -231
2 -144 -46 -214 -175 -256 -71 -23 -81 -24 -423 -24 l-350 0 -1 260 c0 143 2
264 4 268 2 5 158 7 346 5 284 -4 353 -7 415 -22z m464 -690 c129 -134 318
-206 822 -311 271 -57 419 -114 471 -182 31 -41 54 -114 48 -153 -12 -76 -17
-96 -38 -129 -35 -55 -69 -84 -132 -115 -120 -59 -370 -78 -549 -42 -36 7
-128 47 -159 68 -89 62 -131 139 -161 296 -2 9 -4 17 -5 17 -1 0 -3 20 -5 44
-21 230 -125 391 -314 486 -51 25 -54 28 -36 41 24 18 20 19 58 -20z m-476
-245 c174 -35 256 -142 247 -321 -7 -131 -57 -218 -154 -269 -75 -39 -132 -45
-480 -46 -184 -1 -342 1 -350 3 -13 3 -15 44 -14 320 1 174 2 319 3 322 2 11
695 2 748 -9z"/>
</g>
</svg>
